<!DOCTYPE svg PUBLIC "-//W3C//DTD SVG 20010904//EN" "http://www.w3.org/TR/2001/REC-SVG-20010904/DTD/svg10.dtd">
<svg version="1.0" xmlns="http://www.w3.org/2000/svg" width="352px" height="296px" viewBox="0 0 3520 2960" preserveAspectRatio="xMidYMid meet">
<g id="layer101" fill="#000000" stroke="none">
 <path d="M0 1480 l0 -1480 1760 0 1760 0 0 1480 0 1480 -1760 0 -1760 0 0 -1480z"/>
 </g>
<g id="layer102" fill="#ffffff" stroke="none">
 <path d="M0 1480 l0 -1480 1760 0 1760 0 0 1480 0 1480 -1760 0 -1760 0 0 -1480z m1139 1229 c24 -8 31 -17 31 -36 0 -20 -4 -24 -17 -18 -106 44 -189 21 -208 -57 l-7 -28 121 0 121 0 0 -40 c0 -87 -52 -140 -139 -140 -87 0 -131 37 -151 124 -26 117 44 206 161 206 31 0 70 -5 88 -11z m335 1 c18 -7 26 -17 26 -34 0 -24 0 -24 -39 -9 -103 40 -186 -45 -152 -157 17 -57 55 -83 111 -77 25 2 53 8 63 12 13 6 17 2 17 -18 0 -29 -20 -37 -99 -37 -100 0 -151 56 -151 167 0 68 23 113 72 143 36 22 109 27 152 10z m379 -6 c65 -33 91 -71 106 -151 20 -107 -24 -218 -102 -254 -147 -66 -287 32 -287 201 0 94 46 176 115 206 42 18 130 17 168 -2z m627 -94 c0 -119 9 -152 47 -169 35 -16 60 -14 83 9 18 18 20 33 20 140 l0 120 30 0 30 0 0 -113 c0 -126 9 -151 60 -162 73 -16 90 16 90 165 l0 110 26 0 26 0 -4 -136 c-3 -135 -3 -136 -31 -160 -41 -35 -106 -33 -149 5 l-32 28 -24 -28 c-20 -25 -31 -29 -72 -29 -32 0 -55 6 -73 20 -25 20 -25 20 -30 -1 -4 -15 -12 -20 -29 -17 -23 3 -23 4 -26 160 -3 172 -7 156 51 167 4 0 7 -48 7 -109z m-1678 -87 l3 -186 73 2 c71 2 72 2 72 -23 l0 -26 -181 0 -180 0 3 23 c3 20 8 22 76 22 l72 0 0 188 0 187 30 0 30 0 2 -187z m1307 77 c0 -60 5 -118 10 -128 15 -28 67 -47 99 -36 41 15 52 48 52 167 l0 107 25 0 25 0 0 -115 c0 -169 -20 -205 -113 -205 -29 0 -53 7 -70 20 -14 11 -27 20 -29 20 -1 0 -2 -36 0 -80 l4 -80 -31 0 -31 0 0 220 0 220 29 0 29 0 1 -110z m-703 -487 c20 -240 -51 -550 -196 -853 -99 -206 -111 -246 -117 -372 -7 -130 14 -212 78 -307 75 -113 229 -215 384 -256 310 -82 668 53 797 302 49 94 62 157 55 267 -7 109 -30 180 -121 368 -78 159 -136 329 -166 484 -24 123 -36 312 -26 397 l7 57 301 -2 300 -3 54 -119 c29 -66 53 -120 51 -122 -10 -8 -68 -34 -77 -34 -5 0 -28 38 -49 85 l-39 84 -231 3 -231 3 0 -36 c0 -75 22 -247 42 -334 32 -137 82 -274 164 -446 41 -86 84 -192 95 -235 28 -104 30 -264 5 -349 -69 -232 -258 -405 -521 -476 -62 -17 -110 -22 -215 -22 -165 -1 -232 14 -379 85 -91 44 -116 62 -191 137 -99 98 -150 189 -175 306 -36 173 -9 316 107 555 133 275 181 448 204 728 l6 82 -234 0 -234 0 -34 -77 c-18 -43 -37 -82 -41 -87 -7 -8 -89 20 -89 30 0 5 79 184 95 215 l16 29 298 0 299 0 8 -87z m402 -433 l-6 -520 154 0 154 0 0 -65 0 -65 -365 0 -365 0 0 65 0 64 153 3 152 3 6 460 c3 253 7 486 8 518 l1 57 56 0 57 0 -5 -520z"/>
 <path d="M946 2521 c-11 -17 23 -71 50 -81 44 -17 74 -11 106 20 48 49 37 61 -64 66 -54 3 -88 1 -92 -5z"/>
 <path d="M1733 2673 c-64 -13 -110 -104 -100 -201 10 -96 56 -142 141 -142 82 0 126 61 126 172 0 119 -70 190 -167 171z"/>
 </g>

</svg>